# xmcd CD database file generated by Grip 3.0.7
# 
# Track frame offsets:
#       150
#       4592
#       13775
#       28185
#       51165
#       73025
#       93525
#       108780
#       124510
#       134482
#       140755
#       147930
#       171087
#       187975
#       193512
#       203627
#       220775
#       233762
#       243890
# 
# Disc length: 3407 seconds
# 
# Revision: 0
# Processed by: cddbd v1.5.1PL0 Copyright (c) Steve Scherf et al.
# Submitted via: Grip 3.0.7
# 
DISCID=0a0d4d13
DTITLE=Leadbelly - Nobody Knows the Trouble I've Seen
DYEAR=1994
DGENRE=Blues
TTITLE0=Ho Day
TTITLE1=One Dollar Bill Baby
TTITLE2=Aint' Goin' Down to the Well No More
TTITLE3=Shorty George
TTITLE4=Ha-ha Thisaway
TTITLE5=Where de Sun Gone Down
TTITLE6=Bring Me Water Silvy
TTITLE7=Monkey Man
TTITLE8=Ain't Gonna Ring Dem Yallow Woman's Do' Bells
TTITLE9=Rock Island Line
TTITLE10=Bill the Weaver
TTITLE11=Ain't Gonna Drink No More
TTITLE12=New York City
TTITLE13=The Hindenburg Disaster, Part 1
TTITLE14=The Hindenburg Disaster, Part 2
TTITLE15=Git On Board
TTITLE16=Outshine the Sun
TTITLE17=Nobody Knows the Trouble I've Seen
TTITLE18=Little John Henry
EXTD=
EXTT0=
EXTT1=
EXTT2=
EXTT3=
EXTT4=
EXTT5=
EXTT6=
EXTT7=
EXTT8=
EXTT9=
EXTT10=
EXTT11=
EXTT12=
EXTT13=
EXTT14=
EXTT15=
EXTT16=
EXTT17=
EXTT18=
PLAYORDER=
